<?xml version="1.0" encoding="UTF-8"?>
<svg xmlns="http://www.w3.org/2000/svg" width="960" height="540" viewBox="0 0 960 540">
<rect width="100%" height="100%" fill="#0b0f14"/>
<text x="480.0" y="28" fill="#e8edf2" font-size="18" font-family="Arial" text-anchor="middle">Loss Curve (Recent Run)</text>
<text x="480.0" y="524" fill="#c7d1db" font-size="12" font-family="Arial" text-anchor="middle">Step</text>
<text x="16" y="270.0" fill="#c7d1db" font-size="12" font-family="Arial" text-anchor="middle" transform="rotate(-90 16,270.0)">Loss</text>
<rect x="70" y="50" width="860" height="430" fill="#111722" stroke="#2a3542" stroke-width="1"/>
<line x1="70" y1="480.0" x2="930" y2="480.0" stroke="#1b2330" stroke-width="1"/>
<text x="60" y="484.0" fill="#95a3b3" font-size="11" font-family="Arial" text-anchor="end">0.0016</text>
<line x1="70" y1="372.5" x2="930" y2="372.5" stroke="#1b2330" stroke-width="1"/>
<text x="60" y="376.5" fill="#95a3b3" font-size="11" font-family="Arial" text-anchor="end">0.0053</text>
<line x1="70" y1="265.0" x2="930" y2="265.0" stroke="#1b2330" stroke-width="1"/>
<text x="60" y="269.0" fill="#95a3b3" font-size="11" font-family="Arial" text-anchor="end">0.0090</text>
<line x1="70" y1="157.5" x2="930" y2="157.5" stroke="#1b2330" stroke-width="1"/>
<text x="60" y="161.5" fill="#95a3b3" font-size="11" font-family="Arial" text-anchor="end">0.0127</text>
<line x1="70" y1="50.0" x2="930" y2="50.0" stroke="#1b2330" stroke-width="1"/>
<text x="60" y="54.0" fill="#95a3b3" font-size="11" font-family="Arial" text-anchor="end">0.0164</text>
<line x1="70.0" y1="50" x2="70.0" y2="480" stroke="#1b2330" stroke-width="1"/>
<text x="70.0" y="498" fill="#95a3b3" font-size="11" font-family="Arial" text-anchor="middle">49</text>
<line x1="242.0" y1="50" x2="242.0" y2="480" stroke="#1b2330" stroke-width="1"/>
<text x="242.0" y="498" fill="#95a3b3" font-size="11" font-family="Arial" text-anchor="middle">22k</text>
<line x1="414.0" y1="50" x2="414.0" y2="480" stroke="#1b2330" stroke-width="1"/>
<text x="414.0" y="498" fill="#95a3b3" font-size="11" font-family="Arial" text-anchor="middle">44k</text>
<line x1="586.0" y1="50" x2="586.0" y2="480" stroke="#1b2330" stroke-width="1"/>
<text x="586.0" y="498" fill="#95a3b3" font-size="11" font-family="Arial" text-anchor="middle">66k</text>
<line x1="758.0" y1="50" x2="758.0" y2="480" stroke="#1b2330" stroke-width="1"/>
<text x="758.0" y="498" fill="#95a3b3" font-size="11" font-family="Arial" text-anchor="middle">88k</text>
<line x1="930.0" y1="50" x2="930.0" y2="480" stroke="#1b2330" stroke-width="1"/>
<text x="930.0" y="498" fill="#95a3b3" font-size="11" font-family="Arial" text-anchor="middle">110k</text>
<rect x="894.2" y="50" width="35.8" height="430" fill="#7a1c1c" opacity="0.18"/>
<polyline fill="none" stroke="#5dd3a0" stroke-width="2.2" points="70.0,79.7 70.4,117.3 70.8,152.3 71.2,184.0 71.6,200.1 72.0,204.2 72.3,206.6 72.7,216.5 73.1,229.8 73.5,240.0 73.9,243.4 74.3,236.5 74.7,249.0 75.1,251.7 75.5,255.1 75.9,256.9 76.3,264.0 76.7,262.5 77.0,251.2 77.4,253.4 77.8,244.7 78.2,246.4 78.6,253.5 79.0,252.4 79.4,253.2 79.8,261.8 80.2,255.6 80.6,262.3 81.0,265.2 81.4,267.0 81.7,262.7 82.1,268.9 82.5,272.6 82.9,276.2 83.3,272.9 83.7,272.1 84.1,275.9 84.5,277.4 84.9,279.1 85.3,281.4 85.7,283.7 86.1,287.3 86.4,280.0 86.8,285.7 87.2,286.5 87.6,289.2 88.0,284.7 88.4,291.8 88.8,292.7 89.2,288.2 89.6,293.8 90.0,294.9 90.4,298.0 90.8,295.6 91.1,298.1 91.5,290.8 91.9,294.1 92.3,299.7 92.7,292.1 93.1,300.4 93.5,299.4 93.9,300.4 94.3,305.1 94.7,301.2 95.1,305.0 95.5,301.9 95.8,305.3 96.2,302.9 96.6,306.5 97.0,304.8 97.4,305.2 97.8,305.7 98.2,305.4 98.6,307.6 99.0,311.6 99.4,308.7 99.8,305.6 100.1,313.5 100.5,311.9 100.9,315.0 101.3,314.1 101.7,316.4 102.1,315.8 102.5,320.7 102.9,319.1 103.3,319.5 103.7,321.1 104.1,321.1 104.5,319.4 104.8,321.9 105.2,322.8 105.6,323.8 106.0,320.9 106.4,327.0 106.8,322.2 107.2,322.1 107.6,326.9 108.0,326.6 108.4,326.3 108.8,319.4 109.2,327.6 109.5,327.7 109.9,330.1 110.3,336.6 110.7,337.7 111.1,346.2 111.5,366.0 111.9,363.8 112.3,368.7 112.7,362.4 113.1,362.7 113.5,362.9 113.9,366.0 114.2,364.5 114.6,360.4 115.0,360.8 115.4,367.2 115.8,362.9 116.2,357.5 116.6,364.2 117.0,368.7 117.4,363.4 117.8,364.1 118.2,362.3 118.6,366.5 118.9,363.9 119.3,364.3 119.7,367.2 120.1,359.2 120.5,361.8 120.9,364.9 121.3,357.7 121.7,367.2 122.1,377.6 122.5,382.0 122.9,383.2 123.2,386.5 123.6,382.8 124.0,380.8 124.4,387.1 124.8,384.9 125.2,382.5 125.6,382.7 126.0,384.6 126.4,382.9 126.8,383.9 127.2,380.5 127.6,380.1 127.9,382.0 128.3,381.1 128.7,378.2 129.1,381.7 129.5,380.5 129.9,378.2 130.3,380.6 130.7,377.7 131.1,380.8 131.5,378.9 131.9,378.3 132.3,380.9 132.6,377.8 133.0,381.4 133.4,379.3 133.8,381.7 134.2,382.4 134.6,382.3 135.0,381.9 135.4,388.2 135.8,383.7 136.2,380.2 136.6,383.5 137.0,380.5 137.3,382.9 137.7,378.0 138.1,383.8 138.5,382.8 138.9,380.9 139.3,383.7 139.7,375.2 140.1,350.2 140.5,346.7 140.9,344.8 141.3,347.7 141.7,344.4 142.0,349.1 142.4,351.5 142.8,350.6 143.2,349.6 143.6,350.9 144.0,354.5 144.4,354.6 144.8,355.5 145.2,354.6 145.6,353.5 146.0,356.4 146.4,357.1 146.7,355.8 147.1,353.1 147.5,355.1 147.9,355.3 148.3,352.5 148.7,357.0 149.1,358.0 149.5,356.4 149.9,359.6 150.3,356.9 150.7,360.8 151.0,361.5 151.4,356.2 151.8,362.7 152.2,363.6 152.6,358.3 153.0,352.1 153.4,358.7 153.8,359.7 154.2,357.8 154.6,357.6 155.0,356.4 155.4,355.3 155.7,360.2 156.1,359.3 156.5,355.4 156.9,361.8 157.3,360.3 157.7,360.2 158.1,361.6 158.5,362.9 158.9,358.3 159.3,366.5 159.7,359.8 160.1,361.6 160.4,359.9 160.8,363.7 161.2,357.4 161.6,364.1 162.0,361.3 162.4,361.6 162.8,360.2 163.2,365.0 163.6,363.2 164.0,363.1 164.4,364.0 164.8,361.2 165.1,357.5 165.5,363.5 165.9,368.3 166.3,361.5 166.7,366.5 167.1,362.1 167.5,365.2 167.9,361.6 168.3,367.3 168.7,366.4 169.1,366.4 169.5,366.8 169.8,366.6 170.2,363.7 170.6,364.9 171.0,363.7 171.4,363.1 171.8,365.8 172.2,366.4 172.6,369.2 173.0,376.5 173.4,382.2 173.8,380.1 174.2,395.3 174.5,392.8 174.9,391.4 175.3,393.4 175.7,392.7 176.1,390.2 176.5,390.7 176.9,395.0 177.3,389.5 177.7,393.8 178.1,393.0 178.5,394.4 178.8,393.1 179.2,392.7 179.6,388.7 180.0,390.4 180.4,396.7 180.8,394.0 181.2,394.0 181.6,390.5 182.0,393.3 182.4,390.5 182.8,392.2 183.2,393.2 183.5,393.9 183.9,398.5 184.3,395.1 184.7,406.4 185.1,408.9 185.5,407.1 185.9,403.6 186.3,406.5 186.7,405.9 187.1,408.6 187.5,408.8 187.9,409.4 188.2,408.2 188.6,411.2 189.0,404.4 189.4,404.1 189.8,406.9 190.2,406.6 190.6,404.2 191.0,406.8 191.4,406.8 191.8,403.4 192.2,403.2 192.6,404.3 192.9,406.3 193.3,405.4 193.7,404.8 194.1,403.7 194.5,401.0 194.9,401.0 195.3,402.7 195.7,408.2 196.1,405.9 196.5,411.2 196.9,407.5 197.3,407.4 197.6,408.6 198.0,410.3 198.4,407.9 198.8,407.9 199.2,410.5 199.6,408.1 200.0,408.6 200.4,405.4 200.8,408.4 201.2,407.5 201.6,397.2 201.9,387.9 202.3,388.5 202.7,367.6 203.1,374.3 203.5,373.9 203.9,384.3 204.3,384.5 204.7,375.2 205.1,374.8 205.5,382.4 205.9,381.4 206.3,383.2 206.6,381.2 207.0,384.8 207.4,383.2 207.8,381.8 208.2,383.7 208.6,380.3 209.0,386.3 209.4,382.5 209.8,378.9 210.2,383.5 210.6,384.4 211.0,385.6 211.3,383.8 211.7,383.9 212.1,384.8 212.5,387.2 212.9,384.9 213.3,383.5 213.7,385.3 214.1,380.1 214.5,384.1 214.9,385.6 215.3,386.0 215.7,385.4 216.0,385.2 216.4,386.9 216.8,385.2 217.2,385.2 217.6,381.4 218.0,383.1 218.4,384.5 218.8,377.0 219.2,384.4 219.6,382.2 220.0,386.2 220.4,386.3 220.7,384.8 221.1,388.6 221.5,389.1 221.9,385.1 222.3,383.3 222.7,384.4 223.1,384.9 223.5,390.0 223.9,385.3 224.3,386.0 224.7,389.2 225.1,383.9 225.4,388.1 225.8,384.9 226.2,384.5 226.6,386.2 227.0,385.0 227.4,388.3 227.8,385.3 228.2,388.4 228.6,383.5 229.0,385.1 229.4,386.9 229.7,391.4 230.1,387.1 230.5,389.5 230.9,387.7 231.3,385.0 231.7,387.4 232.1,386.8 232.5,388.5 232.9,389.5 233.3,392.3 233.7,389.5 234.1,385.6 234.4,387.0 234.8,387.4 235.2,391.9 235.6,398.9 236.0,406.1 236.4,408.2 236.8,408.3 237.2,409.1 237.6,411.1 238.0,411.9 238.4,411.3 238.8,408.0 239.1,411.2 239.5,411.9 239.9,408.8 240.3,411.2 240.7,406.7 241.1,408.3 241.5,408.4 241.9,410.5 242.3,407.7 242.7,411.5 243.1,409.6 243.5,408.9 243.8,407.7 244.2,410.5 244.6,407.4 245.0,409.5 245.4,404.4 245.8,410.0 246.2,413.2 246.6,413.5 247.0,412.7 247.4,417.6 247.8,420.1 248.2,418.0 248.5,419.1 248.9,418.6 249.3,411.8 249.7,418.2 250.1,419.4 250.5,418.3 250.9,418.7 251.3,417.6 251.7,418.9 252.1,417.3 252.5,415.7 252.9,418.2 253.2,416.5 253.6,416.1 254.0,418.4 254.4,416.9 254.8,418.1 255.2,415.9 255.6,419.3 256.0,419.1 256.4,418.8 256.8,419.6 257.2,416.8 257.5,415.0 257.9,420.8 258.3,422.6 258.7,420.8 259.1,420.0 259.5,419.7 259.9,416.1 260.3,421.0 260.7,418.4 261.1,420.8 261.5,419.8 261.9,419.5 262.2,416.8 262.6,421.7 263.0,420.5 263.4,420.2 263.8,405.5 264.2,396.2 264.6,392.9 265.0,390.2 265.4,391.5 265.8,393.5 266.2,392.3 266.6,391.6 266.9,396.7 267.3,396.1 267.7,397.1 268.1,390.4 268.5,396.4 268.9,397.1 269.3,396.5 269.7,397.1 270.1,398.4 270.5,395.9 270.9,399.1 271.3,399.0 271.6,395.9 272.0,393.4 272.4,396.2 272.8,399.7 273.2,399.1 273.6,400.9 274.0,397.8 274.4,396.4 274.8,403.1 275.2,397.2 275.6,392.6 276.0,398.8 276.3,400.0 276.7,395.9 277.1,396.1 277.5,396.3 277.9,396.4 278.3,401.2 278.7,398.8 279.1,396.8 279.5,394.8 279.9,396.1 280.3,399.6 280.6,400.0 281.0,403.4 281.4,400.1 281.8,397.6 282.2,394.3 282.6,396.6 283.0,397.8 283.4,396.5 283.8,393.9 284.2,394.4 284.6,401.5 285.0,399.7 285.3,396.9 285.7,397.9 286.1,398.4 286.5,398.2 286.9,398.8 287.3,398.7 287.7,398.4 288.1,397.9 288.5,399.9 288.9,397.5 289.3,396.1 289.7,398.9 290.0,397.0 290.4,401.2 290.8,398.6 291.2,396.0 291.6,399.1 292.0,398.2 292.4,401.0 292.8,394.0 293.2,393.7 293.6,394.8 294.0,398.6 294.4,399.5 294.7,396.5 295.1,394.7 295.5,397.2 295.9,396.8 296.3,400.8 296.7,398.1 297.1,400.6 297.5,406.3 297.9,410.1 298.3,413.2 298.7,419.8 299.1,417.6 299.4,415.4 299.8,417.3 300.2,417.2 300.6,418.1 301.0,419.2 301.4,414.4 301.8,414.9 302.2,415.8 302.6,416.3 303.0,418.7 303.4,414.8 303.8,416.0 304.1,420.2 304.5,419.0 304.9,418.0 305.3,413.8 305.7,417.8 306.1,415.1 306.5,412.6 306.9,417.9 307.3,416.0 307.7,417.7 308.1,420.1 308.4,420.4 308.8,424.6 309.2,425.0 309.6,424.7 310.0,426.0 310.4,425.2 310.8,423.4 311.2,426.1 311.6,423.9 312.0,425.2 312.4,425.2 312.8,426.6 313.1,427.2 313.5,424.0 313.9,428.0 314.3,424.2 314.7,425.8 315.1,422.5 315.5,422.9 315.9,422.0 316.3,423.7 316.7,423.3 317.1,425.5 317.5,422.5 317.8,427.2 318.2,423.9 318.6,423.5 319.0,425.7 319.4,422.9 319.8,425.3 320.2,424.7 320.6,423.5 321.0,429.4 321.4,427.0 321.8,429.6 322.2,427.2 322.5,427.8 322.9,428.5 323.3,430.5 323.7,428.0 324.1,428.5 324.5,429.4 324.9,430.5 325.3,431.0 325.7,424.4 326.1,418.0 326.5,402.7 326.9,398.6 327.2,403.5 327.6,402.3 328.0,405.1 328.4,400.6 328.8,402.5 329.2,401.6 329.6,402.6 330.0,406.2 330.4,407.6 330.8,405.1 331.2,403.3 331.6,406.7 331.9,407.7 332.3,405.3 332.7,406.3 333.1,406.7 333.5,404.9 333.9,405.7 334.3,409.0 334.7,409.2 335.1,407.6 335.5,404.2 335.9,402.9 336.2,406.7 336.6,407.1 337.0,404.3 337.4,407.5 337.8,406.9 338.2,409.3 338.6,405.2 339.0,406.3 339.4,408.0 339.8,403.8 340.2,406.6 340.6,404.2 340.9,405.5 341.3,406.0 341.7,404.7 342.1,404.8 342.5,404.3 342.9,404.8 343.3,404.4 343.7,406.5 344.1,406.5 344.5,409.2 344.9,404.8 345.3,406.0 345.6,403.1 346.0,405.1 346.4,405.3 346.8,400.2 347.2,401.4 347.6,406.0 348.0,403.4 348.4,403.8 348.8,403.1 349.2,405.8 349.6,406.0 350.0,407.5 350.3,407.3 350.7,408.0 351.1,408.2 351.5,407.2 351.9,407.8 352.3,407.6 352.7,405.5 353.1,407.9 353.5,405.9 353.9,404.7 354.3,400.8 354.7,408.1 355.0,403.5 355.4,405.5 355.8,409.6 356.2,409.3 356.6,406.2 357.0,404.2 357.4,406.2 357.8,407.2 358.2,401.7 358.6,406.7 359.0,403.0 359.4,411.7 359.7,413.9 360.1,420.1 360.5,422.1 360.9,426.1 361.3,423.9 361.7,422.9 362.1,421.7 362.5,423.9 362.9,422.1 363.3,422.6 363.7,423.7 364.0,424.5 364.4,422.8 364.8,423.2 365.2,423.6 365.6,421.1 366.0,421.0 366.4,424.9 366.8,423.4 367.2,419.9 367.6,421.6 368.0,422.9 368.4,425.4 368.7,420.1 369.1,422.5 369.5,423.3 369.9,423.1 370.3,424.9 370.7,425.5 371.1,425.9 371.5,432.2 371.9,430.2 372.3,429.4 372.7,431.3 373.1,432.5 373.4,431.6 373.8,433.1 374.2,429.1 374.6,431.5 375.0,430.1 375.4,427.4 375.8,431.8 376.2,430.5 376.6,431.7 377.0,430.8 377.4,428.5 377.8,429.5 378.1,430.1 378.5,430.5 378.9,431.5 379.3,430.9 379.7,432.4 380.1,431.0 380.5,428.4 380.9,431.8 381.3,429.1 381.7,431.1 382.1,431.5 382.5,435.4 382.8,432.3 383.2,433.0 383.6,433.2 384.0,431.5 384.4,433.4 384.8,429.0 385.2,430.1 385.6,432.1 386.0,431.5 386.4,431.6 386.8,435.2 387.1,432.8 387.5,431.8 387.9,424.4 388.3,413.7 388.7,408.8 389.1,407.0 389.5,407.5 389.9,410.0 390.3,414.0 390.7,411.0 391.1,409.0 391.5,412.3 391.8,413.0 392.2,409.6 392.6,407.8 393.0,410.3 393.4,411.5 393.8,407.2 394.2,413.1 394.6,413.6 395.0,414.4 395.4,413.0 395.8,409.8 396.2,414.6 396.5,411.5 396.9,412.3 397.3,410.9 397.7,414.2 398.1,410.0 398.5,409.9 398.9,411.1 399.3,412.4 399.7,410.6 400.1,410.9 400.5,411.7 400.9,415.6 401.2,411.0 401.6,414.0 402.0,411.9 402.4,413.5 402.8,409.7 403.2,406.7 403.6,410.4 404.0,410.1 404.4,413.3 404.8,410.5 405.2,409.5 405.6,410.3 405.9,412.0 406.3,412.9 406.7,410.6 407.1,409.0 407.5,408.9 407.9,411.5 408.3,410.5 408.7,411.1 409.1,410.3 409.5,412.1 409.9,410.5 410.3,411.4 410.6,414.7 411.0,411.8 411.4,409.8 411.8,416.4 412.2,409.7 412.6,412.1 413.0,409.4 413.4,409.1 413.8,413.5 414.2,413.6 414.6,413.0 414.9,410.3 415.3,408.9 415.7,411.9 416.1,407.6 416.5,407.8 416.9,411.0 417.3,411.7 417.7,407.6 418.1,407.9 418.5,410.5 418.9,405.3 419.3,411.2 419.6,413.4 420.0,410.6 420.4,410.0 420.8,408.6 421.2,413.0 421.6,413.6 422.0,421.8 422.4,428.2 422.8,426.8 423.2,429.0 423.6,427.9 424.0,428.8 424.3,424.5 424.7,429.0 425.1,427.8 425.5,425.7 425.9,423.8 426.3,427.2 426.7,427.3 427.1,428.5 427.5,427.9 427.9,426.7 428.3,426.9 428.7,429.2 429.0,425.5 429.4,422.9 429.8,427.9 430.2,429.1 430.6,429.6 431.0,426.8 431.4,425.5 431.8,428.7 432.2,426.8 432.6,428.3 433.0,429.0 433.4,435.4 433.7,435.3 434.1,432.8 434.5,435.0 434.9,432.7 435.3,433.7 435.7,434.3 436.1,435.2 436.5,429.4 436.9,433.1 437.3,433.5 437.7,431.1 438.1,433.5 438.4,433.2 438.8,435.8 439.2,433.6 439.6,431.5 440.0,432.5 440.4,434.1 440.8,431.7 441.2,431.7 441.6,436.4 442.0,433.6 442.4,431.6 442.7,435.0 443.1,433.0 443.5,433.7 443.9,432.8 444.3,434.6 444.7,434.3 445.1,435.3 445.5,440.5 445.9,433.0 446.3,435.7 446.7,440.9 447.1,439.8 447.4,439.2 447.8,437.3 448.2,438.4 448.6,441.5 449.0,434.2 449.4,436.7 449.8,434.0 450.2,427.9 450.6,411.1 451.0,415.8 451.4,412.7 451.8,412.5 452.1,413.9 452.5,415.4 452.9,410.2 453.3,417.8 453.7,416.4 454.1,416.8 454.5,415.5 454.9,414.4 455.3,418.0 455.7,415.7 456.1,415.9 456.5,414.1 456.8,415.6 457.2,414.1 457.6,417.4 458.0,416.7 458.4,416.3 458.8,414.9 459.2,417.1 459.6,415.7 460.0,419.5 460.4,416.5 460.8,416.2 461.2,418.1 461.5,415.8 461.9,416.1 462.3,419.2 462.7,419.9 463.1,416.7 463.5,417.2 463.9,417.9 464.3,418.3 464.7,417.2 465.1,414.6 465.5,414.2 465.8,413.9 466.2,414.2 466.6,414.1 467.0,415.5 467.4,414.6 467.8,414.5 468.2,414.7 468.6,409.6 469.0,413.5 469.4,411.3 469.8,416.6 470.2,414.4 470.5,414.2 470.9,414.2 471.3,413.6 471.7,414.6 472.1,416.5 472.5,415.3 472.9,411.2 473.3,416.6 473.7,415.8 474.1,415.3 474.5,415.5 474.9,413.6 475.2,412.9 475.6,415.2 476.0,414.1 476.4,416.2 476.8,415.9 477.2,416.2 477.6,413.1 478.0,412.0 478.4,413.9 478.8,415.2 479.2,412.6 479.6,411.1 479.9,414.6 480.3,416.4 480.7,417.3 481.1,416.8 481.5,416.1 481.9,418.2 482.3,410.6 482.7,417.6 483.1,413.9 483.5,416.7 483.9,422.4 484.3,422.6 484.6,430.5 485.0,430.3 485.4,426.9 485.8,431.5 486.2,429.0 486.6,430.8 487.0,429.6 487.4,430.8 487.8,428.6 488.2,426.9 488.6,427.3 489.0,431.8 489.3,429.6 489.7,427.6 490.1,432.4 490.5,429.1 490.9,428.9 491.3,429.5 491.7,429.4 492.1,431.1 492.5,427.7 492.9,432.7 493.3,430.8 493.6,430.2 494.0,434.5 494.4,433.9 494.8,431.3 495.2,432.5 495.6,438.3 496.0,438.9 496.4,436.5 496.8,434.3 497.2,435.8 497.6,434.7 498.0,436.0 498.3,437.4 498.7,436.0 499.1,435.3 499.5,436.0 499.9,437.7 500.3,438.9 500.7,441.5 501.1,437.0 501.5,438.8 501.9,437.0 502.3,434.9 502.7,438.5 503.0,434.5 503.4,438.8 503.8,434.9 504.2,435.4 504.6,438.0 505.0,436.8 505.4,432.7 505.8,437.3 506.2,440.0 506.6,437.9 507.0,438.4 507.4,439.8 507.7,440.8 508.1,438.5 508.5,440.9 508.9,436.3 509.3,442.4 509.7,438.2 510.1,439.6 510.5,436.7 510.9,437.9 511.3,437.2 511.7,434.6 512.1,430.0 512.4,423.8 512.8,421.1 513.2,416.9 513.6,413.5 514.0,415.2 514.4,420.5 514.8,419.2 515.2,421.6 515.6,417.0 516.0,421.5 516.4,416.9 516.8,421.0 517.1,418.7 517.5,417.9 517.9,420.9 518.3,421.8 518.7,420.7 519.1,421.5 519.5,420.0 519.9,420.5 520.3,418.2 520.7,419.4 521.1,418.8 521.4,419.7 521.8,420.9 522.2,418.9 522.6,422.6 523.0,420.5 523.4,421.2 523.8,421.9 524.2,421.3 524.6,416.7 525.0,419.8 525.4,422.0 525.8,421.7 526.1,420.6 526.5,421.5 526.9,418.7 527.3,420.5 527.7,417.0 528.1,414.6 528.5,417.4 528.9,419.5 529.3,416.9 529.7,420.8 530.1,417.0 530.5,418.8 530.8,419.0 531.2,416.9 531.6,418.5 532.0,419.9 532.4,414.9 532.8,417.1 533.2,415.8 533.6,417.9 534.0,415.3 534.4,417.2 534.8,419.1 535.2,418.4 535.5,420.1 535.9,420.0 536.3,417.8 536.7,416.8 537.1,419.4 537.5,416.2 537.9,417.8 538.3,418.8 538.7,414.4 539.1,419.9 539.5,418.3 539.9,418.0 540.2,414.4 540.6,416.1 541.0,419.2 541.4,419.3 541.8,419.0 542.2,415.5 542.6,417.5 543.0,417.5 543.4,419.1 543.8,417.7 544.2,417.8 544.5,419.5 544.9,418.6 545.3,418.1 545.7,418.9 546.1,427.1 546.5,433.0 546.9,430.5 547.3,433.3 547.7,434.7 548.1,434.7 548.5,434.1 548.9,434.3 549.2,436.5 549.6,433.9 550.0,434.5 550.4,432.0 550.8,432.3 551.2,427.6 551.6,431.8 552.0,435.5 552.4,429.1 552.8,430.7 553.2,432.1 553.6,433.2 553.9,434.1 554.3,433.1 554.7,433.9 555.1,435.5 555.5,432.5 555.9,435.5 556.3,432.3 556.7,435.6 557.1,436.7 557.5,435.0 557.9,437.6 558.3,437.9 558.6,437.1 559.0,438.6 559.4,435.9 559.8,439.0 560.2,439.8 560.6,436.5 561.0,439.2 561.4,436.7 561.8,436.2 562.2,435.8 562.6,438.0 563.0,436.1 563.3,436.9 563.7,437.0 564.1,437.0 564.5,441.1 564.9,435.3 565.3,436.8 565.7,438.0 566.1,439.4 566.5,440.4 566.9,438.8 567.3,437.9 567.7,438.9 568.0,441.9 568.4,441.7 568.8,438.8 569.2,441.3 569.6,443.8 570.0,444.3 570.4,443.5 570.8,442.1 571.2,440.5 571.6,439.4 572.0,444.2 572.3,439.2 572.7,442.3 573.1,441.9 573.5,444.1 573.9,440.0 574.3,426.7 574.7,415.3 575.1,415.8 575.5,417.7 575.9,421.7 576.3,422.4 576.7,417.6 577.0,417.8 577.4,422.1 577.8,423.9 578.2,420.7 578.6,420.8 579.0,421.9 579.4,421.9 579.8,418.3 580.2,421.0 580.6,421.7 581.0,420.5 581.4,423.0 581.7,423.4 582.1,421.6 582.5,420.6 582.9,422.5 583.3,418.5 583.7,421.7 584.1,421.8 584.5,422.6 584.9,425.8 585.3,422.1 585.7,423.4 586.1,421.1 586.4,423.5 586.8,423.5 587.2,421.5 587.6,424.5 588.0,421.6 588.4,421.8 588.8,422.7 589.2,422.7 589.6,423.0 590.0,422.0 590.4,420.0 590.8,421.8 591.1,421.6 591.5,417.9 591.9,422.5 592.3,419.9 592.7,421.0 593.1,419.1 593.5,421.6 593.9,416.2 594.3,420.3 594.7,418.7 595.1,418.0 595.5,420.9 595.8,421.0 596.2,419.3 596.6,420.1 597.0,420.9 597.4,421.8 597.8,418.7 598.2,420.2 598.6,419.7 599.0,425.9 599.4,419.0 599.8,419.5 600.1,416.5 600.5,422.5 600.9,421.5 601.3,422.1 601.7,419.7 602.1,421.6 602.5,417.6 602.9,417.5 603.3,419.7 603.7,422.9 604.1,421.1 604.5,421.4 604.8,418.3 605.2,421.5 605.6,417.5 606.0,416.6 606.4,416.8 606.8,420.1 607.2,421.0 607.6,424.0 608.0,429.0 608.4,429.8 608.8,436.3 609.2,434.7 609.5,433.9 609.9,437.0 610.3,434.0 610.7,433.8 611.1,435.4 611.5,434.9 611.9,434.2 612.3,432.2 612.7,433.9 613.1,434.0 613.5,436.3 613.9,437.1 614.2,434.7 614.6,432.5 615.0,433.2 615.4,434.7 615.8,434.7 616.2,435.9 616.6,435.0 617.0,433.1 617.4,436.6 617.8,434.2 618.2,434.6 618.6,437.2 618.9,437.9 619.3,438.5 619.7,440.9 620.1,441.2 620.5,440.5 620.9,441.8 621.3,437.8 621.7,441.5 622.1,441.2 622.5,443.3 622.9,441.4 623.2,439.7 623.6,442.9 624.0,439.7 624.4,438.7 624.8,443.2 625.2,436.7 625.6,439.2 626.0,438.5 626.4,441.2 626.8,439.2 627.2,439.1 627.6,439.6 627.9,438.7 628.3,439.8 628.7,440.9 629.1,439.1 629.5,438.9 629.9,440.5 630.3,444.0 630.7,443.7 631.1,438.9 631.5,443.7 631.9,440.7 632.3,443.3 632.6,443.7 633.0,439.7 633.4,441.3 633.8,442.8 634.2,443.5 634.6,444.1 635.0,442.8 635.4,441.6 635.8,441.9 636.2,435.4 636.6,430.9 637.0,424.4 637.3,420.1 637.7,420.5 638.1,423.1 638.5,422.0 638.9,422.0 639.3,424.7 639.7,423.7 640.1,425.2 640.5,424.1 640.9,425.5 641.3,418.8 641.7,423.2 642.0,424.6 642.4,427.4 642.8,426.9 643.2,425.8 643.6,424.8 644.0,423.0 644.4,423.4 644.8,425.3 645.2,426.8 645.6,426.3 646.0,425.1 646.4,424.0 646.7,423.6 647.1,425.8 647.5,429.1 647.9,423.0 648.3,427.4 648.7,425.2 649.1,424.3 649.5,423.9 649.9,424.2 650.3,425.9 650.7,421.5 651.0,424.7 651.4,422.2 651.8,423.2 652.2,421.7 652.6,422.0 653.0,420.1 653.4,422.2 653.8,423.1 654.2,423.0 654.6,420.9 655.0,419.0 655.4,424.5 655.7,422.6 656.1,422.0 656.5,422.8 656.9,419.8 657.3,422.3 657.7,422.4 658.1,426.3 658.5,422.3 658.9,420.2 659.3,423.5 659.7,422.4 660.1,423.4 660.4,422.9 660.8,421.8 661.2,421.1 661.6,421.2 662.0,422.8 662.4,422.0 662.8,420.4 663.2,421.5 663.6,418.7 664.0,419.7 664.4,423.2 664.8,422.5 665.1,422.4 665.5,420.0 665.9,420.7 666.3,421.1 666.7,422.7 667.1,419.9 667.5,423.3 667.9,424.9 668.3,423.1 668.7,420.5 669.1,416.8 669.5,420.8 669.8,425.4 670.2,430.7 670.6,434.8 671.0,437.9 671.4,436.4 671.8,439.2 672.2,437.6 672.6,436.7 673.0,434.5 673.4,438.4 673.8,436.5 674.2,433.5 674.5,435.4 674.9,436.5 675.3,435.8 675.7,435.4 676.1,436.2 676.5,433.7 676.9,437.3 677.3,437.8 677.7,437.4 678.1,436.6 678.5,436.7 678.8,439.5 679.2,438.8 679.6,436.4 680.0,436.1 680.4,435.7 680.8,438.3 681.2,441.2 681.6,443.3 682.0,442.2 682.4,441.1 682.8,439.6 683.2,438.6 683.5,441.0 683.9,438.7 684.3,441.9 684.7,443.3 685.1,443.2 685.5,442.6 685.9,439.9 686.3,439.5 686.7,442.0 687.1,443.7 687.5,442.9 687.9,442.0 688.2,445.3 688.6,442.2 689.0,443.0 689.4,444.0 689.8,442.9 690.2,440.9 690.6,440.2 691.0,441.4 691.4,444.2 691.8,443.6 692.2,443.0 692.6,444.6 692.9,444.4 693.3,444.4 693.7,446.5 694.1,445.6 694.5,440.5 694.9,443.0 695.3,444.6 695.7,446.1 696.1,444.1 696.5,443.9 696.9,444.2 697.3,444.0 697.6,446.2 698.0,443.7 698.4,435.0 698.8,418.1 699.2,421.2 699.6,423.4 700.0,425.4 700.4,428.7 700.8,425.9 701.2,428.2 701.6,424.0 701.9,426.8 702.3,427.1 702.7,426.7 703.1,426.1 703.5,425.6 703.9,427.7 704.3,424.5 704.7,425.5 705.1,426.3 705.5,425.6 705.9,427.0 706.3,424.0 706.6,426.0 707.0,425.8 707.4,427.4 707.8,425.9 708.2,430.4 708.6,426.0 709.0,425.4 709.4,424.3 709.8,425.1 710.2,427.5 710.6,427.7 711.0,427.6 711.3,428.8 711.7,425.4 712.1,422.1 712.5,425.5 712.9,423.2 713.3,426.8 713.7,423.4 714.1,424.9 714.5,426.9 714.9,423.8 715.3,423.8 715.7,424.0 716.0,422.6 716.4,426.1 716.8,425.1 717.2,425.1 717.6,422.0 718.0,425.0 718.4,425.1 718.8,424.2 719.2,424.5 719.6,424.4 720.0,421.7 720.4,420.7 720.7,425.5 721.1,425.9 721.5,421.0 721.9,424.0 722.3,425.4 722.7,423.6 723.1,425.7 723.5,426.8 723.9,423.9 724.3,424.5 724.7,426.0 725.1,421.1 725.4,423.6 725.8,422.0 726.2,423.0 726.6,423.7 727.0,423.2 727.4,424.1 727.8,423.7 728.2,425.6 728.6,420.4 729.0,422.0 729.4,422.0 729.7,425.5 730.1,422.1 730.5,422.5 730.9,425.5 731.3,424.2 731.7,427.5 732.1,427.1 732.5,432.7 732.9,441.6 733.3,439.4 733.7,438.7 734.1,439.0 734.4,439.0 734.8,437.6 735.2,438.9 735.6,438.4 736.0,435.4 736.4,436.6 736.8,436.8 737.2,437.1 737.6,438.0 738.0,437.0 738.4,437.0 738.8,438.8 739.1,438.2 739.5,441.1 739.9,439.2 740.3,439.6 740.7,438.2 741.1,441.4 741.5,441.2 741.9,440.1 742.3,435.1 742.7,438.0 743.1,439.6 743.5,441.8 743.8,441.7 744.2,444.4 744.6,444.1 745.0,442.0 745.4,442.6 745.8,442.6 746.2,443.9 746.6,445.6 747.0,444.4 747.4,438.8 747.8,443.5 748.2,443.4 748.5,440.3 748.9,442.9 749.3,442.9 749.7,444.8 750.1,443.2 750.5,442.7 750.9,443.9 751.3,445.7 751.7,443.5 752.1,442.6 752.5,440.1 752.9,442.2 753.2,441.8 753.6,443.0 754.0,443.4 754.4,443.3 754.8,445.9 755.2,445.4 755.6,446.1 756.0,445.1 756.4,443.3 756.8,446.5 757.2,443.1 757.5,448.8 757.9,441.8 758.3,443.3 758.7,446.3 759.1,446.2 759.5,445.2 759.9,442.1 760.3,441.2 760.7,433.9 761.1,427.2 761.5,421.8 761.9,421.6 762.2,426.2 762.6,424.6 763.0,425.9 763.4,427.2 763.8,427.0 764.2,427.8 764.6,429.1 765.0,426.2 765.4,429.4 765.8,425.7 766.2,427.5 766.6,430.1 766.9,429.9 767.3,428.6 767.7,426.7 768.1,425.5 768.5,428.6 768.9,428.0 769.3,428.2 769.7,425.7 770.1,430.4 770.5,429.9 770.9,428.2 771.3,428.2 771.6,428.8 772.0,430.5 772.4,429.3 772.8,426.6 773.2,426.0 773.6,427.3 774.0,431.5 774.4,425.6 774.8,430.0 775.2,427.0 775.6,422.9 776.0,424.1 776.3,424.4 776.7,424.6 777.1,427.4 777.5,423.7 777.9,425.7 778.3,424.4 778.7,425.7 779.1,427.4 779.5,428.9 779.9,426.5 780.3,426.1 780.6,427.0 781.0,425.1 781.4,423.8 781.8,427.7 782.2,426.1 782.6,426.0 783.0,421.9 783.4,425.2 783.8,426.5 784.2,424.4 784.6,425.7 785.0,426.2 785.3,427.3 785.7,425.3 786.1,426.4 786.5,423.8 786.9,423.0 787.3,426.6 787.7,426.8 788.1,423.6 788.5,422.3 788.9,423.1 789.3,421.7 789.7,425.9 790.0,426.4 790.4,424.6 790.8,427.8 791.2,422.1 791.6,426.7 792.0,427.6 792.4,426.9 792.8,426.8 793.2,423.7 793.6,424.5 794.0,430.5 794.4,433.2 794.7,436.6 795.1,438.8 795.5,440.4 795.9,441.1 796.3,441.4 796.7,439.5 797.1,438.6 797.5,438.1 797.9,438.0 798.3,440.5 798.7,436.9 799.1,436.6 799.4,439.3 799.8,439.8 800.2,440.8 800.6,440.0 801.0,439.0 801.4,438.8 801.8,437.4 802.2,438.7 802.6,439.3 803.0,439.9 803.4,438.9 803.8,439.8 804.1,437.1 804.5,440.7 804.9,441.1 805.3,440.4 805.7,443.2 806.1,444.6 806.5,442.7 806.9,443.0 807.3,443.4 807.7,442.8 808.1,444.2 808.4,444.0 808.8,446.9 809.2,443.9 809.6,443.7 810.0,444.3 810.4,444.0 810.8,444.0 811.2,445.4 811.6,442.3 812.0,444.6 812.4,444.8 812.8,445.3 813.1,443.2 813.5,441.9 813.9,444.2 814.3,443.3 814.7,444.6 815.1,444.7 815.5,443.2 815.9,440.9 816.3,444.3 816.7,446.2 817.1,444.1 817.5,445.0 817.8,444.9 818.2,446.4 818.6,446.4 819.0,444.1 819.4,447.5 819.8,447.2 820.2,447.4 820.6,446.6 821.0,447.5 821.4,446.7 821.8,447.4 822.2,445.3 822.5,443.1 822.9,425.0 823.3,419.5 823.7,426.5 824.1,429.1 824.5,428.9 824.9,426.9 825.3,427.8 825.7,427.6 826.1,425.1 826.5,429.5 826.9,429.6 827.2,431.4 827.6,431.1 828.0,433.2 828.4,430.8 828.8,428.3 829.2,430.1 829.6,428.5 830.0,429.0 830.4,431.8 830.8,430.2 831.2,429.6 831.6,427.2 831.9,428.6 832.3,431.3 832.7,431.0 833.1,423.9 833.5,427.5 833.9,427.5 834.3,430.2 834.7,429.4 835.1,427.5 835.5,429.8 835.9,430.5 836.2,428.0 836.6,427.6 837.0,431.2 837.4,429.4 837.8,425.3 838.2,429.9 838.6,428.0 839.0,427.7 839.4,427.7 839.8,428.6 840.2,424.3 840.6,428.5 840.9,429.3 841.3,426.1 841.7,427.3 842.1,424.3 842.5,427.8 842.9,428.1 843.3,431.1 843.7,425.8 844.1,424.8 844.5,427.3 844.9,428.1 845.3,428.6 845.6,429.7 846.0,427.0 846.4,427.0 846.8,425.2 847.2,426.4 847.6,427.4 848.0,424.5 848.4,425.6 848.8,425.4 849.2,424.6 849.6,427.1 850.0,424.3 850.3,427.2 850.7,428.4 851.1,427.7 851.5,427.0 851.9,426.1 852.3,428.1 852.7,425.5 853.1,426.5 853.5,427.0 853.9,425.8 854.3,424.6 854.7,426.4 855.0,426.8 855.4,425.8 855.8,427.0 856.2,434.4 856.6,439.0 857.0,440.4 857.4,442.8 857.8,438.5 858.2,440.1 858.6,441.9 859.0,438.4 859.4,440.4 859.7,438.8 860.1,440.6 860.5,438.8 860.9,440.4 861.3,442.7 861.7,441.4 862.1,439.8 862.5,441.2 862.9,441.1 863.3,440.9 863.7,438.9 864.0,440.5 864.4,440.5 864.8,441.1 865.2,441.1 865.6,441.1 866.0,440.9 866.4,440.5 866.8,438.0 867.2,442.7 867.6,442.1 868.0,445.4 868.4,448.7 868.7,444.4 869.1,445.9 869.5,446.6 869.9,445.9 870.3,445.2 870.7,443.6 871.1,446.1 871.5,445.6 871.9,446.6 872.3,445.0 872.7,449.0 873.1,445.5 873.4,446.1 873.8,444.7 874.2,444.5 874.6,446.9 875.0,442.5 875.4,444.4 875.8,444.3 876.2,445.3 876.6,444.3 877.0,444.9 877.4,447.6 877.8,445.9 878.1,442.6 878.5,442.8 878.9,446.5 879.3,446.9 879.7,447.4 880.1,445.8 880.5,446.2 880.9,448.0 881.3,445.8 881.7,448.7 882.1,449.4 882.5,450.3 882.8,449.9 883.2,447.6 883.6,446.3 884.0,449.3 884.4,440.7 884.8,437.7 885.2,430.7 885.6,424.2 886.0,427.9 886.4,430.2 886.8,430.1 887.1,430.8 887.5,426.1 887.9,431.9 888.3,431.0 888.7,433.0 889.1,431.1 889.5,432.0 889.9,427.0 890.3,425.8 890.7,428.4 891.1,427.5 891.5,431.1 891.8,430.7 892.2,431.3 892.6,430.1 893.0,429.6 893.4,431.5 893.8,432.3 894.2,429.3 894.6,431.0 895.0,432.2 895.4,433.7 895.8,433.1 896.2,434.3 896.5,431.2 896.9,427.5 897.3,429.1 897.7,429.3 898.1,430.3 898.5,429.3 898.9,428.5 899.3,429.7 899.7,428.7 900.1,428.1 900.5,425.7 900.9,429.4 901.2,429.3 901.6,428.8 902.0,430.6 902.4,429.1 902.8,430.9 903.2,428.2 903.6,429.0 904.0,427.9 904.4,425.9 904.8,428.1 905.2,428.6 905.6,425.8 905.9,428.0 906.3,427.0 906.7,430.3 907.1,429.0 907.5,425.3 907.9,428.3 908.3,429.2 908.7,428.7 909.1,431.0 909.5,431.9 909.9,428.2 910.3,429.4 910.6,428.4 911.0,426.8 911.4,425.2 911.8,429.7 912.2,424.0 912.6,428.8 913.0,428.7 913.4,429.0 913.8,426.0 914.2,430.7 914.6,426.3 914.9,428.0 915.3,426.8 915.7,427.6 916.1,428.5 916.5,429.0 916.9,427.0 917.3,427.0 917.7,427.8 918.1,430.1 918.5,434.7 918.9,439.3 919.3,442.4 919.6,442.6 920.0,443.9 920.4,441.7 920.8,440.5 921.2,441.7 921.6,440.2 922.0,439.7 922.4,441.0 922.8,442.2 923.2,439.7 923.6,441.8 924.0,438.4 924.3,442.1 924.7,439.9 925.1,440.9 925.5,439.7 925.9,441.0 926.3,438.7 926.7,441.9 927.1,440.2 927.5,441.7 927.9,441.4 928.3,438.4 928.7,443.3 929.0,442.9 929.4,442.5 929.8,446.0"/>
<polyline fill="none" stroke="#f0b46e" stroke-width="2.2" points="105.5,321.5 141.3,345.4 177.2,381.4 213.0,394.1 248.9,397.7 284.7,396.2 320.6,405.0 356.4,410.4 392.3,415.5 428.1,418.2 464.0,410.7 499.8,411.0 535.7,422.8 571.5,426.7 607.4,424.8 643.2,420.7 679.1,422.3 714.9,427.2 750.8,425.6 786.6,428.3 822.5,428.2 858.3,425.4 894.2,430.5 930.0,429.9"/>
<line x1="894.2" y1="50" x2="894.2" y2="480" stroke="#ff7b7b" stroke-width="2" stroke-dasharray="4,4"/>
<circle cx="894.2" cy="430.5" r="4.5" fill="#ff7b7b" stroke="#0b0f14" stroke-width="1"/>
<text x="900.2" y="64" fill="#ff9b9b" font-size="11" font-family="Arial">best val @ epoch 22, step 105293</text>
<rect x="80" y="62" width="10" height="10" fill="#5dd3a0"/>
<text x="96" y="71" fill="#c7d1db" font-size="11" font-family="Arial">Train</text>
<rect x="150" y="62" width="10" height="10" fill="#f0b46e"/>
<text x="166" y="71" fill="#c7d1db" font-size="11" font-family="Arial">Val</text>
</svg>