<?xml version="1.0" encoding="UTF-8"?>
<svg xmlns="http://www.w3.org/2000/svg" width="960" height="540" viewBox="0 0 960 540">
<rect width="100%" height="100%" fill="#0b0f14"/>
<text x="480.0" y="28" fill="#e8edf2" font-size="18" font-family="Arial" text-anchor="middle">Loss Curve (Epoch 16 Run)</text>
<text x="480.0" y="524" fill="#c7d1db" font-size="12" font-family="Arial" text-anchor="middle">Step</text>
<text x="16" y="270.0" fill="#c7d1db" font-size="12" font-family="Arial" text-anchor="middle" transform="rotate(-90 16,270.0)">Loss</text>
<rect x="70" y="50" width="860" height="430" fill="#111722" stroke="#2a3542" stroke-width="1"/>
<line x1="70" y1="480.0" x2="930" y2="480.0" stroke="#1b2330" stroke-width="1"/>
<text x="60" y="484.0" fill="#95a3b3" font-size="11" font-family="Arial" text-anchor="end">0.0022</text>
<line x1="70" y1="372.5" x2="930" y2="372.5" stroke="#1b2330" stroke-width="1"/>
<text x="60" y="376.5" fill="#95a3b3" font-size="11" font-family="Arial" text-anchor="end">0.0057</text>
<line x1="70" y1="265.0" x2="930" y2="265.0" stroke="#1b2330" stroke-width="1"/>
<text x="60" y="269.0" fill="#95a3b3" font-size="11" font-family="Arial" text-anchor="end">0.0093</text>
<line x1="70" y1="157.5" x2="930" y2="157.5" stroke="#1b2330" stroke-width="1"/>
<text x="60" y="161.5" fill="#95a3b3" font-size="11" font-family="Arial" text-anchor="end">0.0128</text>
<line x1="70" y1="50.0" x2="930" y2="50.0" stroke="#1b2330" stroke-width="1"/>
<text x="60" y="54.0" fill="#95a3b3" font-size="11" font-family="Arial" text-anchor="end">0.0164</text>
<line x1="70.0" y1="50" x2="70.0" y2="480" stroke="#1b2330" stroke-width="1"/>
<text x="70.0" y="498" fill="#95a3b3" font-size="11" font-family="Arial" text-anchor="middle">49</text>
<line x1="285.0" y1="50" x2="285.0" y2="480" stroke="#1b2330" stroke-width="1"/>
<text x="285.0" y="498" fill="#95a3b3" font-size="11" font-family="Arial" text-anchor="middle">11474</text>
<line x1="500.0" y1="50" x2="500.0" y2="480" stroke="#1b2330" stroke-width="1"/>
<text x="500.0" y="498" fill="#95a3b3" font-size="11" font-family="Arial" text-anchor="middle">22899</text>
<line x1="715.0" y1="50" x2="715.0" y2="480" stroke="#1b2330" stroke-width="1"/>
<text x="715.0" y="498" fill="#95a3b3" font-size="11" font-family="Arial" text-anchor="middle">34324</text>
<line x1="930.0" y1="50" x2="930.0" y2="480" stroke="#1b2330" stroke-width="1"/>
<text x="930.0" y="498" fill="#95a3b3" font-size="11" font-family="Arial" text-anchor="middle">45749</text>
<polyline fill="none" stroke="#5dd3a0" stroke-width="2.5" points="70.0,79.7 70.9,118.9 71.9,155.3 72.8,188.4 73.8,205.2 74.7,209.4 75.6,211.9 76.6,222.3 77.5,236.1 78.5,246.8 79.4,250.3 80.4,243.1 81.3,256.1 82.2,258.9 83.2,262.5 84.1,264.3 85.1,271.7 86.0,270.2 86.9,258.4 87.9,260.7 88.8,251.7 89.8,253.5 90.7,260.8 91.6,259.7 92.6,260.5 93.5,269.5 94.5,263.0 95.4,269.9 96.3,273.0 97.3,274.9 98.2,270.4 99.2,276.8 100.1,280.7 101.1,284.5 102.0,281.0 102.9,280.2 103.9,284.1 104.8,285.7 105.8,287.5 106.7,289.9 107.6,292.3 108.6,296.0 109.5,288.4 110.5,294.4 111.4,295.2 112.3,298.0 113.3,293.3 114.2,300.7 115.2,301.6 116.1,297.0 117.0,302.9 118.0,304.0 118.9,307.2 119.9,304.7 120.8,307.3 121.8,299.7 122.7,303.2 123.6,309.0 124.6,301.1 125.5,309.7 126.5,308.6 127.4,309.7 128.3,314.6 129.3,310.5 130.2,314.5 131.2,311.3 132.1,314.8 133.0,312.3 134.0,316.0 134.9,314.3 135.9,314.7 136.8,315.3 137.7,314.9 138.7,317.2 139.6,321.3 140.6,318.4 141.5,315.1 142.5,323.3 143.4,321.7 144.3,324.9 145.3,324.0 146.2,326.3 147.2,325.7 148.1,330.8 149.0,329.1 150.0,329.6 150.9,331.2 151.9,331.2 152.8,329.5 153.7,332.1 154.7,333.1 155.6,334.1 156.6,331.0 157.5,337.4 158.4,332.4 159.4,332.3 160.3,337.3 161.3,337.0 162.2,336.7 163.2,329.4 164.1,338.0 165.0,338.2 166.0,340.6 166.9,347.4 167.9,348.5 168.8,357.5 169.7,378.1 170.7,375.8 171.6,380.8 172.6,374.2 173.5,374.6 174.4,374.8 175.4,378.1 176.3,376.5 177.3,372.2 178.2,372.7 179.1,379.3 180.1,374.8 181.0,369.1 182.0,376.2 182.9,380.9 183.9,375.3 184.8,376.1 185.7,374.2 186.7,378.6 187.6,375.9 188.6,376.3 189.5,379.3 190.4,371.0 191.4,373.6 192.3,376.9 193.3,369.4 194.2,379.3 195.1,390.2 196.1,394.8 197.0,396.0 198.0,399.4 198.9,395.5 199.8,393.4 200.8,400.0 201.7,397.8 202.7,395.2 203.6,395.4 204.6,397.4 205.5,395.7 206.4,396.7 207.4,393.1 208.3,392.8 209.3,394.7 210.2,393.8 211.1,390.7 212.1,394.4 213.0,393.1 214.0,390.8 214.9,393.2 215.8,390.3 216.8,393.5 217.7,391.5 218.7,390.9 219.6,393.6 220.5,390.3 221.5,394.1 222.4,391.9 223.4,394.4 224.3,395.1 225.3,395.0 226.2,394.6 227.1,401.1 228.1,396.5 229.0,392.8 230.0,396.3 230.9,393.1 231.8,395.7 232.8,390.5 233.7,396.5 234.7,395.5 235.6,393.6 236.5,396.5 237.5,387.7 238.4,361.6 239.4,357.9 240.3,356.0 241.2,358.9 242.2,355.6 243.1,360.5 244.1,363.0 245.0,362.0 246.0,361.0 246.9,362.3 247.8,366.1 248.8,366.2 249.7,367.1 250.7,366.1 251.6,365.0 252.5,368.0 253.5,368.7 254.4,367.4 255.4,364.6 256.3,366.6 257.2,366.9 258.2,364.0 259.1,368.7 260.1,369.7 261.0,368.0 261.9,371.4 262.9,368.6 263.8,372.7 264.8,373.3 265.7,367.8 266.7,374.6 267.6,375.5 268.5,370.0 269.5,363.5 270.4,370.5 271.4,371.5 272.3,369.5 273.2,369.3 274.2,368.0 275.1,366.9 276.1,372.0 277.0,371.0 277.9,367.0 278.9,373.6 279.8,372.2 280.8,372.0 281.7,373.5 282.6,374.9 283.6,370.0 284.5,378.6 285.5,371.6 286.4,373.4 287.4,371.7 288.3,375.7 289.2,369.1 290.2,376.1 291.1,373.2 292.1,373.4 293.0,372.0 293.9,377.0 294.9,375.1 295.8,375.0 296.8,376.0 297.7,373.1 298.6,369.2 299.6,375.5 300.5,380.5 301.5,373.4 302.4,378.6 303.3,374.0 304.3,377.2 305.2,373.5 306.2,379.4 307.1,378.4 308.1,378.5 309.0,378.9 309.9,378.6 310.9,375.7 311.8,376.9 312.8,375.6 313.7,375.0 314.6,377.9 315.6,378.5 316.5,381.4 317.5,389.0 318.4,394.9 319.3,392.7 320.3,408.5 321.2,405.9 322.2,404.5 323.1,406.6 324.0,405.9 325.0,403.2 325.9,403.8 326.9,408.3 327.8,402.5 328.8,407.1 329.7,406.2 330.6,407.7 331.6,406.3 332.5,405.9 333.5,401.8 334.4,403.5 335.3,410.1 336.3,407.3 337.2,407.2 338.2,403.6 339.1,406.5 340.0,403.6 341.0,405.4 341.9,406.4 342.9,407.2 343.8,411.9 344.7,408.4 345.7,420.2 346.6,422.7 347.6,420.9 348.5,417.3 349.5,420.3 350.4,419.6 351.3,422.5 352.3,422.7 353.2,423.3 354.2,422.1 355.1,425.2 356.0,418.1 357.0,417.7 357.9,420.7 358.9,420.4 359.8,417.9 360.7,420.6 361.7,420.5 362.6,417.0 363.6,416.8 364.5,417.9 365.4,420.0 366.4,419.1 367.3,418.5 368.3,417.3 369.2,414.5 370.2,414.5 371.1,416.3 372.0,422.0 373.0,419.6 373.9,425.1 374.9,421.3 375.8,421.2 376.7,422.4 377.7,424.3 378.6,421.7 379.6,421.7 380.5,424.5 381.4,421.9 382.4,422.4 383.3,419.2 384.3,422.2 385.2,421.3 386.1,410.5 387.1,400.9 388.0,401.5 389.0,379.7 389.9,386.7 390.9,386.3 391.8,397.1 392.7,397.4 393.7,387.6 394.6,387.3 395.6,395.1 396.5,394.1 397.4,395.9 398.4,393.9 399.3,397.6 400.3,396.0 401.2,394.5 402.1,396.5 403.1,393.0 404.0,399.2 405.0,395.3 405.9,391.5 406.8,396.3 407.8,397.2 408.7,398.4 409.7,396.6 410.6,396.7 411.6,397.6 412.5,400.2 413.4,397.8 414.4,396.3 415.3,398.2 416.3,392.8 417.2,396.9 418.1,398.5 419.1,398.9 420.0,398.3 421.0,398.0 421.9,399.9 422.8,398.1 423.8,398.1 424.7,394.1 425.7,395.9 426.6,397.3 427.5,389.5 428.5,397.3 429.4,394.9 430.4,399.1 431.3,399.2 432.3,397.6 433.2,401.5 434.1,402.1 435.1,397.9 436.0,396.1 437.0,397.2 437.9,397.7 438.8,403.0 439.8,398.2 440.7,398.9 441.7,402.2 442.6,396.7 443.5,401.1 444.5,397.8 445.4,397.3 446.4,399.1 447.3,397.9 448.2,401.3 449.2,398.2 450.1,401.4 451.1,396.3 452.0,398.0 453.0,399.8 453.9,404.5 454.8,400.1 455.8,402.5 456.7,400.6 457.7,397.8 458.6,400.4 459.5,399.8 460.5,401.4 461.4,402.5 462.4,405.4 463.3,402.6 464.2,398.4 465.2,400.0 466.1,400.3 467.1,405.0 468.0,412.3 468.9,419.9 469.9,422.0 470.8,422.1 471.8,422.9 472.7,425.0 473.7,425.8 474.6,425.3 475.5,421.8 476.5,425.2 477.4,425.8 478.4,422.6 479.3,425.2 480.2,420.5 481.2,422.1 482.1,422.2 483.1,424.4 484.0,421.5 484.9,425.5 485.9,423.5 486.8,422.8 487.8,421.5 488.7,424.4 489.6,421.2 490.6,423.3 491.5,418.1 492.5,423.9 493.4,427.3 494.4,427.6 495.3,426.7 496.2,431.8 497.2,434.4 498.1,432.2 499.1,433.3 500.0,432.9 500.9,425.8 501.9,432.5 502.8,433.7 503.8,432.5 504.7,433.0 505.6,431.8 506.6,433.1 507.5,431.5 508.5,429.9 509.4,432.4 510.4,430.7 511.3,430.3 512.2,432.7 513.2,431.1 514.1,432.3 515.1,430.0 516.0,433.6 516.9,433.4 517.9,433.1 518.8,433.9 519.8,431.0 520.7,429.2 521.6,435.1 522.6,437.1 523.5,435.1 524.5,434.3 525.4,434.0 526.3,430.3 527.3,435.4 528.2,432.6 529.2,435.2 530.1,434.1 531.1,433.8 532.0,431.0 532.9,436.1 533.9,434.9 534.8,434.5 535.8,419.3 536.7,409.5 537.6,406.1 538.6,403.3 539.5,404.6 540.5,406.7 541.4,405.5 542.3,404.7 543.3,410.0 544.2,409.4 545.2,410.4 546.1,403.5 547.0,409.7 548.0,410.4 548.9,409.8 549.9,410.5 550.8,411.8 551.8,409.2 552.7,412.6 553.6,412.4 554.6,409.2 555.5,406.6 556.5,409.5 557.4,413.2 558.3,412.5 559.3,414.4 560.2,411.2 561.2,409.7 562.1,416.7 563.0,410.6 564.0,405.7 564.9,412.2 565.9,413.5 566.8,409.2 567.7,409.5 568.7,409.6 569.6,409.7 570.6,414.7 571.5,412.2 572.5,410.1 573.4,408.1 574.3,409.4 575.3,413.0 576.2,413.4 577.2,417.0 578.1,413.6 579.0,411.0 580.0,407.5 580.9,410.0 581.9,411.2 582.8,409.9 583.7,407.2 584.7,407.6 585.6,415.1 586.6,413.2 587.5,410.3 588.4,411.3 589.4,411.8 590.3,411.6 591.3,412.2 592.2,412.1 593.2,411.9 594.1,411.3 595.0,413.3 596.0,410.9 596.9,409.4 597.9,412.4 598.8,410.4 599.7,414.7 600.7,412.0 601.6,409.4 602.6,412.6 603.5,411.6 604.4,414.5 605.4,407.3 606.3,406.9 607.3,408.0 608.2,412.0 609.1,412.9 610.1,409.8 611.0,408.0 612.0,410.5 612.9,410.1 613.9,414.3 614.8,411.5 615.7,414.1 616.7,420.1 617.6,424.0 618.6,427.2 619.5,434.1 620.4,431.8 621.4,429.5 622.3,431.6 623.3,431.4 624.2,432.3 625.1,433.5 626.1,428.5 627.0,429.1 628.0,430.0 628.9,430.4 629.8,433.0 630.8,428.9 631.7,430.2 632.7,434.5 633.6,433.3 634.6,432.3 635.5,427.8 636.4,432.1 637.4,429.2 638.3,426.6 639.3,432.2 640.2,430.1 641.1,431.9 642.1,434.4 643.0,434.7 644.0,439.1 644.9,439.5 645.8,439.2 646.8,440.6 647.7,439.8 648.7,437.9 649.6,440.6 650.5,438.3 651.5,439.8 652.4,439.8 653.4,441.2 654.3,441.8 655.3,438.5 656.2,442.7 657.1,438.7 658.1,440.3 659.0,436.9 660.0,437.4 660.9,436.4 661.8,438.2 662.8,437.7 663.7,440.1 664.7,436.9 665.6,441.8 666.5,438.4 667.5,437.9 668.4,440.2 669.4,437.3 670.3,439.9 671.2,439.3 672.2,437.9 673.1,444.2 674.1,441.6 675.0,444.4 676.0,441.8 676.9,442.4 677.8,443.2 678.8,445.3 679.7,442.7 680.7,443.2 681.6,444.2 682.5,445.2 683.5,445.8 684.4,438.9 685.4,432.2 686.3,416.3 687.2,412.0 688.2,417.1 689.1,415.9 690.1,418.8 691.0,414.1 691.9,416.1 692.9,415.2 693.8,416.2 694.8,419.9 695.7,421.4 696.7,418.8 697.6,416.9 698.5,420.4 699.5,421.5 700.4,419.0 701.4,420.0 702.3,420.5 703.2,418.6 704.2,419.5 705.1,422.8 706.1,423.1 707.0,421.4 707.9,417.8 708.9,416.5 709.8,420.5 710.8,420.9 711.7,417.9 712.6,421.3 713.6,420.6 714.5,423.2 715.5,418.9 716.4,420.0 717.4,421.9 718.3,417.4 719.2,420.3 720.2,417.8 721.1,419.2 722.1,419.7 723.0,418.4 723.9,418.5 724.9,418.0 725.8,418.5 726.8,418.0 727.7,420.2 728.6,420.3 729.6,423.1 730.5,418.4 731.5,419.8 732.4,416.7 733.3,418.8 734.3,419.0 735.2,413.7 736.2,414.9 737.1,419.8 738.1,417.0 739.0,417.4 739.9,416.7 740.9,419.6 741.8,419.7 742.8,421.3 743.7,421.1 744.6,421.9 745.6,422.0 746.5,421.0 747.5,421.6 748.4,421.4 749.3,419.2 750.3,421.7 751.2,419.7 752.2,418.4 753.1,414.3 754.0,421.9 755.0,417.1 755.9,419.2 756.9,423.4 757.8,423.2 758.8,419.9 759.7,417.9 760.6,419.9 761.6,421.0 762.5,415.3 763.5,420.5 764.4,416.7 765.3,425.7 766.3,428.0 767.2,434.4 768.2,436.5 769.1,440.7 770.0,438.4 771.0,437.4 771.9,436.1 772.9,438.3 773.8,436.5 774.7,437.0 775.7,438.2 776.6,439.0 777.6,437.2 778.5,437.6 779.5,438.1 780.4,435.5 781.3,435.4 782.3,439.5 783.2,437.8 784.2,434.2 785.1,435.9 786.0,437.4 787.0,439.9 787.9,434.4 788.9,437.0 789.8,437.7 790.7,437.6 791.7,439.4 792.6,440.1 793.6,440.4 794.5,447.1 795.4,444.9 796.4,444.2 797.3,446.1 798.3,447.4 799.2,446.4 800.2,448.0 801.1,443.9 802.0,446.3 803.0,444.9 803.9,442.0 804.9,446.6 805.8,445.2 806.7,446.6 807.7,445.6 808.6,443.2 809.6,444.2 810.5,444.9 811.4,445.2 812.4,446.3 813.3,445.7 814.3,447.3 815.2,445.8 816.1,443.1 817.1,446.7 818.0,443.8 819.0,445.9 819.9,446.3 820.9,450.3 821.8,447.1 822.7,447.9 823.7,448.1 824.6,446.3 825.6,448.3 826.5,443.7 827.4,444.9 828.4,446.9 829.3,446.3 830.3,446.4 831.2,450.1 832.1,447.6 833.1,446.7 834.0,439.0 835.0,427.7 835.9,422.7 836.8,420.7 837.8,421.3 838.7,423.9 839.7,428.1 840.6,424.9 841.6,422.8 842.5,426.3 843.4,427.0 844.4,423.4 845.3,421.6 846.3,424.2 847.2,425.4 848.1,421.0 849.1,427.2 850.0,427.6 851.0,428.5 851.9,427.1 852.8,423.7 853.8,428.7 854.7,425.5 855.7,426.3 856.6,424.8 857.5,428.3 858.5,423.9 859.4,423.8 860.4,425.1 861.3,426.4 862.3,424.5 863.2,424.8 864.1,425.7 865.1,429.7 866.0,425.0 867.0,428.1 867.9,425.9 868.8,427.6 869.8,423.6 870.7,420.5 871.7,424.3 872.6,424.0 873.5,427.4 874.5,424.4 875.4,423.4 876.4,424.3 877.3,426.0 878.2,427.0 879.2,424.6 880.1,422.9 881.1,422.8 882.0,425.4 883.0,424.4 883.9,425.0 884.8,424.2 885.8,426.1 886.7,424.4 887.7,425.4 888.6,428.8 889.5,425.8 890.5,423.7 891.4,430.6 892.4,423.6 893.3,426.1 894.2,423.2 895.2,422.9 896.1,427.5 897.1,427.7 898.0,427.1 898.9,424.2 899.9,422.8 900.8,425.9 901.8,421.4 902.7,421.6 903.7,424.9 904.6,425.7 905.5,421.4 906.5,421.7 907.4,424.5 908.4,419.0 909.3,425.2 910.2,427.5 911.2,424.5 912.1,424.0 913.1,422.5 914.0,427.1 914.9,427.7 915.9,436.2 916.8,442.9 917.8,441.5 918.7,443.7 919.6,442.6 920.6,443.5 921.5,439.0 922.5,443.7 923.4,442.5 924.4,440.3 925.3,438.3 926.2,441.9 927.2,441.9 928.1,443.1 929.1,442.6 930.0,441.3"/>
<text x="80" y="34" fill="#5dd3a0" font-size="12" font-family="Arial">Train</text>
<polyline fill="none" stroke="#f4c97a" stroke-width="2" points="155.2,331.6 241.4,356.6 327.5,394.1 413.7,407.3 499.8,411.0 586.0,409.5 672.1,418.7 758.3,424.3 844.4,429.6"/>
<text x="140" y="34" fill="#f4c97a" font-size="12" font-family="Arial">Val</text>
</svg>