<svg xmlns="http://www.w3.org/2000/svg" viewBox="0 0 700 420">
<defs>
  <linearGradient id="bgGrad" x1="0%" y1="0%" x2="0%" y2="100%">
    <stop offset="0%" style="stop-color:#fafbfc"/>
    <stop offset="100%" style="stop-color:#f0f2f5"/>
  </linearGradient>
  <filter id="shadow" x="-20%" y="-20%" width="140%" height="140%">
    <feDropShadow dx="1" dy="1" stdDeviation="1" flood-opacity="0.15"/>
  </filter>
</defs>
<style>
  .title { font: bold 18px "Segoe UI", sans-serif; fill: #1a1a2e; }
  .subtitle { font: 11px "Segoe UI", sans-serif; fill: #666; }
  .axis-label { font: 12px "Segoe UI", sans-serif; fill: #444; }
  .tick-label { font: 10px "Segoe UI", sans-serif; fill: #555; }
  .grid { stroke: #dde1e6; stroke-width: 1; stroke-dasharray: 4,3; }
  .axis { stroke: #888; stroke-width: 1.5; }
  .line { fill: none; stroke: #2563eb; stroke-width: 2.5; stroke-linecap: round; stroke-linejoin: round; }
  .extra-line { fill: none; stroke: #f59e0b; stroke-width: 2.5; stroke-linecap: round; stroke-linejoin: round; stroke-dasharray: 8,4; }
  .point { fill: #2563eb; stroke: white; stroke-width: 2; }
  .point-label { font: bold 10px "Segoe UI", sans-serif; fill: #1e40af; }
  .extra-point { fill: #f59e0b; stroke: white; stroke-width: 2; }
  .extra-label { font: bold 10px "Segoe UI", sans-serif; fill: #b45309; }
  .legend-box { fill: white; stroke: #ddd; stroke-width: 1; rx: 4; }
  .legend { font: 11px "Segoe UI", sans-serif; fill: #333; }
  .legend-line { stroke-width: 2.5; stroke-linecap: round; }
</style>
<rect width="700" height="420" fill="url(#bgGrad)"/>
<rect x="75" y="50" width="585" height="305" fill="white" rx="2"/>
<text x="350.0" y="28" text-anchor="middle" class="title">Search-Time Scaling</text>
<line x1="75" y1="300.4057279236277" x2="660" y2="300.4057279236277" class="grid"/>
<text x="67" y="304.4057279236277" text-anchor="end" class="tick-label">2700</text>
<line x1="75" y1="227.61336515513125" x2="660" y2="227.61336515513125" class="grid"/>
<text x="67" y="231.61336515513125" text-anchor="end" class="tick-label">2800</text>
<line x1="75" y1="154.82100238663486" x2="660" y2="154.82100238663486" class="grid"/>
<text x="67" y="158.82100238663486" text-anchor="end" class="tick-label">2900</text>
<line x1="75" y1="82.02863961813841" x2="660" y2="82.02863961813841" class="grid"/>
<text x="67" y="86.02863961813841" text-anchor="end" class="tick-label">3000</text>
<line x1="75.0" y1="50" x2="75.0" y2="355" class="grid"/>
<text x="75.0" y="373" text-anchor="middle" class="tick-label">0.05s</text>
<line x1="184.92256745482794" y1="50" x2="184.92256745482794" y2="355" class="grid"/>
<text x="184.92256745482794" y="373" text-anchor="middle" class="tick-label">0.1s</text>
<line x1="294.8451349096559" y1="50" x2="294.8451349096559" y2="355" class="grid"/>
<text x="294.8451349096559" y="373" text-anchor="middle" class="tick-label">0.2s</text>
<line x1="404.7677023644838" y1="50" x2="404.7677023644838" y2="355" class="grid"/>
<text x="404.7677023644838" y="373" text-anchor="middle" class="tick-label">0.4s</text>
<line x1="514.6902698193117" y1="50" x2="514.6902698193117" y2="355" class="grid"/>
<text x="514.6902698193117" y="373" text-anchor="middle" class="tick-label">0.8s</text>
<line x1="614.3780124892382" y1="50" x2="614.3780124892382" y2="355" class="grid"/>
<text x="614.3780124892382" y="373" text-anchor="middle" class="tick-label">1.5s</text>
<line x1="660.0" y1="50" x2="660.0" y2="355" class="grid"/>
<text x="660.0" y="373" text-anchor="middle" class="tick-label">2.0s</text>
<line x1="75" y1="355" x2="660" y2="355" class="axis"/>
<line x1="75" y1="50" x2="75" y2="355" class="axis"/>
<text x="350.0" y="402" text-anchor="middle" class="axis-label">Search Time (seconds, log scale)</text>
<text x="18" y="210.0" text-anchor="middle" transform="rotate(-90, 18, 210.0)" class="axis-label">Estimated Elo</text>
<path d="M 75.0,318.6 L 184.9,224.0 L 294.8,178.8 L 404.8,172.3 L 514.7,142.4 L 614.4,86.4 L 660.0,112.6" class="line"/>
<circle cx="75.0" cy="318.6038186157518" r="6" class="point" filter="url(#shadow)"/>
<text x="75.0" y="306.6038186157518" text-anchor="middle" class="point-label">2675</text>
<circle cx="184.92256745482794" cy="223.97374701670645" r="6" class="point" filter="url(#shadow)"/>
<text x="184.92256745482794" y="211.97374701670645" text-anchor="middle" class="point-label">2805</text>
<circle cx="294.8451349096559" cy="178.84248210023867" r="6" class="point" filter="url(#shadow)"/>
<text x="294.8451349096559" y="166.84248210023867" text-anchor="middle" class="point-label">2867</text>
<circle cx="404.7677023644838" cy="172.29116945107398" r="6" class="point" filter="url(#shadow)"/>
<text x="404.7677023644838" y="160.29116945107398" text-anchor="middle" class="point-label">2876</text>
<circle cx="514.6902698193117" cy="142.44630071599045" r="6" class="point" filter="url(#shadow)"/>
<text x="514.6902698193117" y="130.44630071599045" text-anchor="middle" class="point-label">2917</text>
<circle cx="614.3780124892382" cy="86.39618138424822" r="6" class="point" filter="url(#shadow)"/>
<text x="614.3780124892382" y="74.39618138424822" text-anchor="middle" class="point-label">2994</text>
<circle cx="660.0" cy="112.60143198090694" r="6" class="point" filter="url(#shadow)"/>
<text x="660.0" y="100.60143198090694" text-anchor="middle" class="point-label">2958</text>
</svg>