<?xml version="1.0" encoding="UTF-8"?>
<svg xmlns="http://www.w3.org/2000/svg" width="960" height="540" viewBox="0 0 960 540">
<rect width="100%" height="100%" fill="#0b0f14"/>
<text x="480.0" y="28" fill="#e8edf2" font-size="18" font-family="Arial" text-anchor="middle">Search-Time Scaling (Epoch 16 NNUE)</text>
<text x="480.0" y="524" fill="#c7d1db" font-size="12" font-family="Arial" text-anchor="middle">Time per move (seconds)</text>
<text x="16" y="270.0" fill="#c7d1db" font-size="12" font-family="Arial" text-anchor="middle" transform="rotate(-90 16,270.0)">Estimated Elo</text>
<rect x="70" y="50" width="860" height="430" fill="#111722" stroke="#2a3542" stroke-width="1"/>
<line x1="70" y1="480.0" x2="930" y2="480.0" stroke="#1b2330" stroke-width="1"/>
<text x="60" y="484.0" fill="#95a3b3" font-size="11" font-family="Arial" text-anchor="end">2754</text>
<line x1="70" y1="372.5" x2="930" y2="372.5" stroke="#1b2330" stroke-width="1"/>
<text x="60" y="376.5" fill="#95a3b3" font-size="11" font-family="Arial" text-anchor="end">2856</text>
<line x1="70" y1="265.0" x2="930" y2="265.0" stroke="#1b2330" stroke-width="1"/>
<text x="60" y="269.0" fill="#95a3b3" font-size="11" font-family="Arial" text-anchor="end">2958</text>
<line x1="70" y1="157.5" x2="930" y2="157.5" stroke="#1b2330" stroke-width="1"/>
<text x="60" y="161.5" fill="#95a3b3" font-size="11" font-family="Arial" text-anchor="end">3060</text>
<line x1="70" y1="50.0" x2="930" y2="50.0" stroke="#1b2330" stroke-width="1"/>
<text x="60" y="54.0" fill="#95a3b3" font-size="11" font-family="Arial" text-anchor="end">3162</text>
<line x1="70.0" y1="50" x2="70.0" y2="480" stroke="#1b2330" stroke-width="1"/>
<text x="70.0" y="498" fill="#95a3b3" font-size="11" font-family="Arial" text-anchor="middle">0.05s</text>
<line x1="199.4" y1="50" x2="199.4" y2="480" stroke="#1b2330" stroke-width="1"/>
<text x="199.4" y="498" fill="#95a3b3" font-size="11" font-family="Arial" text-anchor="middle">0.1s</text>
<line x1="328.9" y1="50" x2="328.9" y2="480" stroke="#1b2330" stroke-width="1"/>
<text x="328.9" y="498" fill="#95a3b3" font-size="11" font-family="Arial" text-anchor="middle">0.2s</text>
<line x1="458.3" y1="50" x2="458.3" y2="480" stroke="#1b2330" stroke-width="1"/>
<text x="458.3" y="498" fill="#95a3b3" font-size="11" font-family="Arial" text-anchor="middle">0.4s</text>
<line x1="587.8" y1="50" x2="587.8" y2="480" stroke="#1b2330" stroke-width="1"/>
<text x="587.8" y="498" fill="#95a3b3" font-size="11" font-family="Arial" text-anchor="middle">0.8s</text>
<line x1="705.2" y1="50" x2="705.2" y2="480" stroke="#1b2330" stroke-width="1"/>
<text x="705.2" y="498" fill="#95a3b3" font-size="11" font-family="Arial" text-anchor="middle">1.5s</text>
<line x1="834.6" y1="50" x2="834.6" y2="480" stroke="#1b2330" stroke-width="1"/>
<text x="834.6" y="498" fill="#95a3b3" font-size="11" font-family="Arial" text-anchor="middle">3s</text>
<line x1="930.0" y1="50" x2="930.0" y2="480" stroke="#1b2330" stroke-width="1"/>
<text x="930.0" y="498" fill="#95a3b3" font-size="11" font-family="Arial" text-anchor="middle">5s</text>
<polyline fill="none" stroke="#5dd3a0" stroke-width="2.5" points="70.0,450.3 199.4,376.6 328.9,356.6 458.3,260.8 587.8,190.2 705.2,282.9 834.6,332.4 930.0,79.7"/>
<circle cx="70.0" cy="450.3" r="4" fill="#5dd3a0" stroke="#0b0f14" stroke-width="1"/>
<circle cx="199.4" cy="376.6" r="4" fill="#5dd3a0" stroke="#0b0f14" stroke-width="1"/>
<circle cx="328.9" cy="356.6" r="4" fill="#5dd3a0" stroke="#0b0f14" stroke-width="1"/>
<circle cx="458.3" cy="260.8" r="4" fill="#5dd3a0" stroke="#0b0f14" stroke-width="1"/>
<circle cx="587.8" cy="190.2" r="4" fill="#5dd3a0" stroke="#0b0f14" stroke-width="1"/>
<circle cx="705.2" cy="282.9" r="4" fill="#5dd3a0" stroke="#0b0f14" stroke-width="1"/>
<circle cx="834.6" cy="332.4" r="4" fill="#5dd3a0" stroke="#0b0f14" stroke-width="1"/>
<circle cx="930.0" cy="79.7" r="4" fill="#5dd3a0" stroke="#0b0f14" stroke-width="1"/>
</svg>