<svg xmlns="http://www.w3.org/2000/svg" viewBox="0 0 600 400">
<style>
  .title { font: bold 16px sans-serif; }
  .axis-label { font: 12px sans-serif; }
  .tick-label { font: 10px sans-serif; }
  .grid { stroke: #e0e0e0; stroke-width: 1; }
  .line { fill: none; stroke: #2196F3; stroke-width: 2; }
  .point { fill: #2196F3; }
  .point-label { font: 9px sans-serif; fill: #333; }
  .extra-point { fill: #FF9800; }
  .extra-label { font: 9px sans-serif; fill: #E65100; }
  .legend { font: 10px sans-serif; }
</style>
<rect width="600" height="400" fill="white"/>
<text x="300.0" y="25" text-anchor="middle" class="title">Search-Time Scaling (Epoch 16 NNUE) - 20 games/point</text>
<line x1="70" y1="299.7495527728086" x2="570" y2="299.7495527728086" class="grid"/>
<text x="65" y="303.7495527728086" text-anchor="end" class="tick-label">2700</text>
<line x1="70" y1="246.08228980322002" x2="570" y2="246.08228980322002" class="grid"/>
<text x="65" y="250.08228980322002" text-anchor="end" class="tick-label">2800</text>
<line x1="70" y1="192.4150268336315" x2="570" y2="192.4150268336315" class="grid"/>
<text x="65" y="196.4150268336315" text-anchor="end" class="tick-label">2900</text>
<line x1="70" y1="138.74776386404295" x2="570" y2="138.74776386404295" class="grid"/>
<text x="65" y="142.74776386404295" text-anchor="end" class="tick-label">3000</text>
<line x1="70" y1="85.08050089445439" x2="570" y2="85.08050089445439" class="grid"/>
<text x="65" y="89.08050089445439" text-anchor="end" class="tick-label">3100</text>
<line x1="70.0" y1="40" x2="70.0" y2="340" class="grid"/>
<text x="70.0" y="355" text-anchor="middle" class="tick-label">0.05s</text>
<line x1="145.2574989159953" y1="40" x2="145.2574989159953" y2="340" class="grid"/>
<text x="145.2574989159953" y="355" text-anchor="middle" class="tick-label">0.1s</text>
<line x1="220.51499783199063" y1="40" x2="220.51499783199063" y2="340" class="grid"/>
<text x="220.51499783199063" y="355" text-anchor="middle" class="tick-label">0.2s</text>
<line x1="295.7724967479859" y1="40" x2="295.7724967479859" y2="340" class="grid"/>
<text x="295.7724967479859" y="355" text-anchor="middle" class="tick-label">0.4s</text>
<line x1="371.0299956639812" y1="40" x2="371.0299956639812" y2="340" class="grid"/>
<text x="371.0299956639812" y="355" text-anchor="middle" class="tick-label">0.8s</text>
<line x1="439.28031367991565" y1="40" x2="439.28031367991565" y2="340" class="grid"/>
<text x="439.28031367991565" y="355" text-anchor="middle" class="tick-label">1.5s</text>
<line x1="470.5149978319906" y1="40" x2="470.5149978319906" y2="340" class="grid"/>
<text x="470.5149978319906" y="355" text-anchor="middle" class="tick-label">2.0s</text>
<line x1="514.537812595911" y1="40" x2="514.537812595911" y2="340" class="grid"/>
<text x="514.537812595911" y="355" text-anchor="middle" class="tick-label">3.0s</text>
<line x1="570.0" y1="40" x2="570.0" y2="340" class="grid"/>
<text x="570.0" y="355" text-anchor="middle" class="tick-label">5.0s</text>
<line x1="70" y1="340" x2="570" y2="340" stroke="black" stroke-width="1"/>
<line x1="70" y1="40" x2="70" y2="340" stroke="black" stroke-width="1"/>
<text x="300.0" y="385" text-anchor="middle" class="axis-label">Search Time (seconds, log scale)</text>
<text x="15" y="200.0" text-anchor="middle" transform="rotate(-90, 15, 200.0)" class="axis-label">Estimated Elo</text>
<path d="M 70.0,313.2 L 145.3,243.4 L 220.5,210.1 L 295.8,205.3 L 371.0,183.3 L 439.3,142.0 L 470.5,161.3" class="line"/>
<circle cx="70.0" cy="313.1663685152057" r="5" class="point"/>
<text x="70.0" y="303.1663685152057" text-anchor="middle" class="point-label">2675.0</text>
<circle cx="145.2574989159953" cy="243.3989266547406" r="5" class="point"/>
<text x="145.2574989159953" y="233.3989266547406" text-anchor="middle" class="point-label">2805.0</text>
<circle cx="220.51499783199063" cy="210.1252236135957" r="5" class="point"/>
<text x="220.51499783199063" y="200.1252236135957" text-anchor="middle" class="point-label">2867.0</text>
<circle cx="295.7724967479859" cy="205.29516994633275" r="5" class="point"/>
<text x="295.7724967479859" y="195.29516994633275" text-anchor="middle" class="point-label">2876.0</text>
<circle cx="371.0299956639812" cy="183.29159212880143" r="5" class="point"/>
<text x="371.0299956639812" y="173.29159212880143" text-anchor="middle" class="point-label">2917.0</text>
<circle cx="439.28031367991565" cy="141.96779964221824" r="5" class="point"/>
<text x="439.28031367991565" y="131.96779964221824" text-anchor="middle" class="point-label">2994.0</text>
<circle cx="470.5149978319906" cy="161.28801431127013" r="5" class="point"/>
<text x="470.5149978319906" y="151.28801431127013" text-anchor="middle" class="point-label">2958.0</text>
<circle cx="514.537812595911" cy="195.6350626118068" r="5" class="extra-point"/>
<text x="514.537812595911" y="185.6350626118068" text-anchor="middle" class="extra-label">2894.0</text>
<circle cx="570.0" cy="66.8336314847943" r="5" class="extra-point"/>
<text x="570.0" y="56.833631484794296" text-anchor="middle" class="extra-label">3134.0</text>
<circle cx="450" cy="50" r="4" class="point"/>
<text x="458" y="54" class="legend">20 games/point</text>
<circle cx="450" cy="65" r="4" class="extra-point"/>
<text x="458" y="69" class="legend">5 games/point</text>
</svg>